<?xml version="1.0" standalone="no"?><!DOCTYPE svg PUBLIC "-//W3C//DTD SVG 1.1//EN" "http://www.w3.org/Graphics/SVG/1.1/DTD/svg11.dtd"><svg t="1560176843095" class="icon" style="" viewBox="0 0 1024 1024" version="1.1" xmlns="http://www.w3.org/2000/svg" p-id="2083" xmlns:xlink="http://www.w3.org/1999/xlink" width="200" height="200"><defs><style type="text/css"></style></defs><path d="M933.579 533.072v3.105c0 57.88-11.022 112.487-33.071 163.822-22.05 51.33-52.027 95.95-89.922 133.845-37.896 37.901-82.515 67.872-133.851 89.922-51.33 22.05-105.941 33.071-163.816 33.071-57.88 0-112.488-11.022-163.822-33.071-51.337-22.05-95.95-52.022-133.851-89.922-37.896-37.896-67.868-82.515-89.917-133.845-22.051-51.336-33.077-105.941-33.077-163.822 0-49.614 8.267-96.984 24.806-142.116 16.538-45.134 39.281-85.613 68.218-121.444 28.939-35.834 63.221-66.497 102.842-91.989 39.617-25.497 82.856-43.413 129.712-53.748v316.275c0 24.113 2.585 44.613 7.752 61.494s13.611 30.492 25.324 40.827c11.713 10.337 27.044 17.745 45.989 22.22 18.95 4.482 42.205 6.718 69.765 6.718l366.921-41.343z m-411.36-28.936c-7.579 0-16.023-2.412-25.323-7.237-9.3-4.82-13.953-15.155-13.953-31.007V92.778c0-11.714 2.932-20.157 8.786-25.324 5.86-5.167 16.709-7.752 32.557-7.752 6.895 0 20.849 0.515 41.862 1.549 21.014 1.034 46.167 4.996 75.449 11.886 29.286 6.895 61.328 18.088 96.126 33.591s69.418 38.073 103.873 67.703c24.806 20.672 43.755 43.063 56.847 67.183 13.091 24.113 22.741 46.853 28.939 68.218 6.203 21.359 9.822 39.787 10.856 55.291s1.549 24.635 1.549 27.395c0 10.337-2.412 19.292-7.237 26.868-4.82 7.582-13.779 13.097-26.869 16.538-4.825 1.377-17.229 3.961-37.21 7.752-19.984 3.79-43.755 8.271-71.314 13.439-27.566 5.167-56.847 10.507-87.853 16.018s-59.951 10.507-86.825 14.989c-26.869 4.476-49.78 8.267-68.732 11.367-18.943 3.105-29.455 4.652-31.518 4.652z m0 0z" p-id="2084"></path></svg>