<?xml version="1.0" standalone="no"?><!DOCTYPE svg PUBLIC "-//W3C//DTD SVG 1.1//EN" "http://www.w3.org/Graphics/SVG/1.1/DTD/svg11.dtd"><svg t="1560176838329" class="icon" style="" viewBox="0 0 1024 1024" version="1.1" xmlns="http://www.w3.org/2000/svg" p-id="1964" xmlns:xlink="http://www.w3.org/1999/xlink" width="200" height="200"><defs><style type="text/css"></style></defs><path d="M756.35 431.9L685.7 336.5c-9.9-13.05-28.8-16.2-41.85-6.3-3.6 2.7-6.3 5.4-8.1 9-1.8 2.7-3.15 5.85-4.05 9.45l-62.55 261-40.95-81.9c-7.2-14.85-25.2-20.7-40.05-13.5-4.05 1.8-7.2 4.5-9.9 8.1l-32.85 29.25-67.05-135c-7.2-14.85-25.2-20.7-40.05-13.5-1.8 0.9-3.15 1.8-4.5 2.7-4.05 2.25-8.1 5.4-10.8 9.9l-106.2 160.2H96.2c-16.65 0-29.7 13.5-29.7 29.7 0 16.65 13.5 29.7 29.7 29.7h135c9.9 0.45 19.8-4.05 26.1-13.05 0 0 0-0.45 0.45-0.45l89.1-135 61.2 122.4c1.35 3.15 3.15 6.3 5.4 9 4.05 4.95 9.45 7.65 15.3 9 6.75 1.8 13.95 0.9 20.7-2.25 3.15-1.8 6.3-4.05 8.55-6.3l34.2-30.15 59.85 120.15c7.2 14.85 25.2 20.7 40.05 13.5 8.55-4.5 14.4-12.15 16.2-21.15l67.05-279.45 32.85 44.55c9.9 13.05 28.8 16.2 41.85 6.3 13.05-8.55 15.75-27.45 6.3-40.5z" p-id="1965"></path><path d="M506.6 962c-52.65 0-104.4-9-153.9-26.55-47.7-17.1-91.8-41.4-131.4-72.9-79.2-63-135.45-151.65-158.4-249.3-3.6-16.2 6.3-32.4 22.5-36.45 16.2-3.6 32.4 6.3 36.45 22.5 41.4 177.75 199.8 301.95 385.2 301.95 217.8 0 395.1-174.6 395.1-389.7s-177.3-389.7-395.1-389.7c-162 0-306 95.85-366.3 243.9-4.5 11.25-8.55 22.95-12.15 34.65-4.95 15.75-21.6 24.75-37.8 20.25-15.75-4.95-24.75-21.6-20.25-37.8 4.05-13.5 9-27 13.95-40.05 33.75-82.35 90.45-152.1 164.7-202.5C325.25 89.45 414.35 62 506.6 62c61.2 0 121.05 11.7 177.3 35.1 54 22.5 103.05 54.9 144.9 96.3 41.85 41.4 74.7 89.55 97.65 143.1 23.85 55.35 36 114.3 36 175.5s-12.15 119.7-36 175.5c-22.95 53.55-55.8 101.7-97.65 143.1-41.85 41.4-90.45 73.8-144.9 96.3-56.25 23.4-116.1 35.1-177.3 35.1z" p-id="1966"></path></svg>