<?xml version="1.0" standalone="no"?><!DOCTYPE svg PUBLIC "-//W3C//DTD SVG 1.1//EN" "http://www.w3.org/Graphics/SVG/1.1/DTD/svg11.dtd"><svg t="1560176865514" class="icon" style="" viewBox="0 0 1382 1024" version="1.1" xmlns="http://www.w3.org/2000/svg" p-id="2556" xmlns:xlink="http://www.w3.org/1999/xlink" width="269.921875" height="200"><defs><style type="text/css"></style></defs><path d="M1108.52323555 140.82998676c72.90839547 0 132.56071902 53.02428761 132.56071902 119.30464711 6.62803595 72.90839547-46.39625165 132.56071902-112.67661116 139.18875496h-46.39625166c-6.62803595 0-6.62803595 0-13.2560719 6.62803597-53.02428761 86.16446736-99.42053925 172.32893472-152.44482687 251.86536611-6.62803595 6.62803595 0 13.2560719 6.62803596 13.25607191 33.14017975 26.51214381 53.02428761 59.65232355 46.39625165 106.04857521-6.62803595 46.39625165-33.14017975 72.90839547-72.90839545 92.7925033-46.39625165 19.88410785-99.42053925 0-125.93268306-33.14017975-33.14017975-39.7682157-33.14017975-86.16446736-13.25607191-132.56071901 6.62803595-6.62803595 6.62803595-13.2560719 0-13.2560719-72.90839547-53.02428761-139.18875497-99.42053925-212.09715042-152.44482686-6.62803595-6.62803595-13.2560719-6.62803595-19.88410785 0-13.2560719 6.62803595-33.14017975 13.2560719-53.0242876 6.62803594-6.62803595 0-13.2560719 0-13.25607191 6.62803595-19.88410785 33.14017975-39.7682157 72.90839547-66.2803595 106.04857521-6.62803595 6.62803595-6.62803595 13.2560719 0 19.88410785 26.51214381 33.14017975 26.51214381 59.65232355 6.62803594 99.42053927-13.2560719 33.14017975-53.02428761 46.39625165-86.16446735 46.39625166-39.7682157-6.62803595-66.2803595-26.51214381-72.90839545-59.65232356-19.88410785-59.65232355 33.14017975-125.93268306 99.42053925-112.67661116 6.62803595 0 13.2560719 0 13.2560719-6.62803595l59.65232357-99.42053927c6.62803595-6.62803595 6.62803595-13.2560719 0-19.88410785-26.51214381-39.7682157-33.14017975-86.16446736-19.88410786-119.3046471 19.88410785-39.7682157 59.65232355-59.65232355 99.42053926-59.65232356s79.53643141 33.14017975 86.16446735 72.90839545c6.62803595 26.51214381 6.62803595 53.02428761-13.25607189 79.53643141-6.62803595 6.62803595 0 6.62803595 0 13.2560719 72.90839547 53.02428761 139.18875497 106.0485752 212.09715042 152.44482686 6.62803595 6.62803595 6.62803595 6.62803595 13.25607189 0 19.88410785-13.2560719 39.7682157-13.2560719 66.28035951-13.25607189 6.62803595 0 13.2560719 0 13.2560719-6.62803595 46.39625165-86.16446736 99.42053925-165.70089876 145.81679092-251.86536613 6.62803595-6.62803595 6.62803595-13.2560719 0-19.88410786-46.39625165-33.14017975-59.65232355-92.79250331-46.39625166-145.8167909 33.14017975-53.02428761 86.16446736-86.16446736 139.18875496-86.16446737z" p-id="2557"></path></svg>