<?xml version="1.0" standalone="no"?><!DOCTYPE svg PUBLIC "-//W3C//DTD SVG 1.1//EN" "http://www.w3.org/Graphics/SVG/1.1/DTD/svg11.dtd"><svg t="1560867292545" class="icon" style="" viewBox="0 0 1024 1024" version="1.1" xmlns="http://www.w3.org/2000/svg" p-id="1332" xmlns:xlink="http://www.w3.org/1999/xlink" width="200" height="200"><defs><style type="text/css"></style></defs><path d="M958.67509766 225.21025391c0 0-50.81396484-42.22001953-102.74853516-64.44580079-56.50927734-27.08789063-136.37109375-25.83984375-136.37109375-25.83984375s-56.27636719-4.15458984-113.95458984 23.03613282c-57.67382813 27.19511719-100.24365234 64.13554687-100.24365235 64.13554687s-58.84277344-44.96044922-110.84326172-68.49316406-127.02832031-18.67851562-127.02832031-18.67851563-71.40234375 3.62548828-117.34716797 24.27714844C104.19628906 179.84814453 62 228.94384766 62 228.94384766l0 633.25019531c0 0 64.95117188-56.13134766 103.67753906-71.91650391 38.72900391-15.78076172 99.31816406-15.2578125 99.31816407-15.2578125s72.56865234 8.70117188 115.8196289 26.15185547c43.25537109 17.45947266 124.54277344 82.1953125 124.54277344 82.1953125s51.81152344-55.22167969 93.39697266-75.96826172c70.5234375-36.43066406 140.42724609-31.13525391 140.42724609-31.1352539s42.9609375 1.87207031 102.73095703 24.28417968c54.3515625 20.38623047 117.85693359 62.89013672 117.85693359 62.89013672l-1.09423828-638.22919922L958.67597656 225.21025391zM483.24746094 813.62568359c0 0-111.20097656-87.90820313-218.25175781-85.92626953-100.87382812 1.86328125-139.48242188 27.39550781-165.63603516 53.54736328 0.93779297-30.81884766-0.47021484-529.28964844-0.47021484-529.28964843s38.76591797-69.71220703 169.52958984-75.3178711c111.15263672-9.33837891 207.04570312 69.11455078 212.96074219 84.06035157C484.18613281 280.31503906 483.24746094 813.62568359 483.24746094 813.62568359zM917.57392578 793.08125c-26.15625-26.15625-96.20507813-65.38183594-197.07626953-67.24951172-107.05957031-1.98632813-191.33261719 88.72558594-191.33261719 88.72558594s-0.93164063-533.30537109 1.87207032-552.91816406c9.34277344-14.94580078 82.19970703-89.66601563 212.9625-84.06035157 113.33496094 4.93242188 175.03769531 73.58203125 175.03769531 73.58203125S917.68378906 762.50849609 917.57392578 793.08125z" p-id="1333"></path></svg>