<?xml version="1.0" standalone="no"?><!DOCTYPE svg PUBLIC "-//W3C//DTD SVG 1.1//EN" "http://www.w3.org/Graphics/SVG/1.1/DTD/svg11.dtd"><svg t="1560176828041" class="icon" style="" viewBox="0 0 1024 1024" version="1.1" xmlns="http://www.w3.org/2000/svg" p-id="1721" xmlns:xlink="http://www.w3.org/1999/xlink" width="200" height="200"><defs><style type="text/css"></style></defs><path d="M190.4375 410.5625c-8.90625-0.09375-17.0625-4.6875-21.65625-12.28125-4.59375-7.59375-4.875-16.96875-0.84375-24.84375 68.15625-130.21875 200.625-211.03125 345.75-211.03125 9.09375 0 17.4375 4.875 22.03125 12.65625a25.59375 25.59375 0 0 1 0 25.40625c-4.5 7.875-12.9375 12.65625-22.03125 12.65625-126.1875 0-241.40625 70.40625-300.75 183.75-4.3125 8.34375-13.03125 13.6875-22.5 13.6875m646.59375-0.09375c-9.46875 0-18.1875-5.25-22.59375-13.59375-20.8125-40.03125-49.40625-75.5625-84-104.625-8.15625-6.9375-11.0625-18.09375-7.40625-28.125 3.65625-10.03125 13.125-16.6875 23.8125-16.78125 5.90625 0 11.71875 2.15625 16.3125 6 39.75 33.28125 72.46875 73.96875 96.375 119.90625 4.03125 7.875 3.75 17.25-0.84375 24.84375-4.59375 7.6875-12.84375 12.28125-21.65625 12.375M389.28125 511.53125c-13.96875 0-25.3125-11.34375-25.40625-25.3125v-30.9375c-0.375-9.28125 4.40625-18.09375 12.375-22.875 7.96875-4.78125 18-4.78125 25.96875 0s12.75 13.5 12.375 22.875v30.9375c0.09375 14.0625-11.34375 25.40625-25.3125 25.3125m248.15625 0c-13.96875 0-25.40625-11.34375-25.40625-25.3125v-30.9375c-0.5625-9.375 4.21875-18.28125 12.28125-23.15625 8.0625-4.875 18.1875-4.875 26.25 0 8.0625 4.875 12.75 13.78125 12.28125 23.15625v30.9375c-0.09375 13.96875-11.4375 25.40625-25.40625 25.3125M513.03125 653.65625c-42.09375 0-71.53125-29.15625-82.21875-46.40625-3.5625-5.71875-4.6875-12.65625-3.1875-19.21875s5.625-12.1875 11.34375-15.75c11.8125-7.40625 27.375-3.84375 34.78125 7.875 2.71875 4.03125 16.78125 22.6875 39.28125 22.6875 24.75 0 39.9375-22.78125 40.125-23.0625 3.65625-5.625 9.375-9.5625 15.9375-10.96875s13.40625-0.09375 19.03125 3.5625c5.71875 3.65625 9.75 9.375 11.15625 15.9375s0.1875 13.5-3.46875 19.21875c-11.0625 17.15625-40.875 46.125-82.78125 46.125m55.96875-333.65625c-6.5625 0-13.21875-0.5625-19.78125-1.59375-13.78125-2.25-23.25-15.1875-21.09375-29.0625 1.875-12.28125 12.46875-21.375 24.9375-21.46875 8.0625 0.9375 12 1.21875 15.9375 1.21875 38.25 0 71.8125-29.625 78-69 7.03125-44.25-21.84375-85.78125-64.40625-92.4375-6.65625-1.03125-12.65625-4.6875-16.5-10.21875-4.03125-5.4375-5.625-12.1875-4.59375-18.84375 1.96875-12.28125 12.5625-21.375 25.03125-21.46875 34.875 4.96875 66.1875 23.8125 87 52.21875 20.8125 28.40625 29.34375 63.9375 23.71875 98.71875-10.125 63.84375-65.15625 111.9375-128.25 111.9375" p-id="1722"></path><path d="M513.03125 656c-43.21875 0-73.3125-29.90625-84.28125-47.53125-3.9375-6.28125-5.15625-13.78125-3.46875-21 1.6875-7.125 6.1875-13.40625 12.46875-17.25 12.84375-8.0625 29.90625-4.21875 37.96875 8.625 2.4375 3.5625 15.9375 21.65625 37.3125 21.65625 22.40625 0 36.65625-19.6875 38.15625-21.9375 4.03125-6.1875 10.21875-10.40625 17.34375-11.90625 7.21875-1.5 14.625-0.1875 20.71875 3.84375 6.1875 3.9375 10.59375 10.3125 12.1875 17.4375 1.59375 7.125 0.1875 14.8125-3.75 20.90625-11.15625 17.4375-41.71875 47.15625-84.65625 47.15625z m-60.75-85.3125c-4.125 0-8.34375 1.125-12.09375 3.46875-5.15625 3.1875-8.90625 8.34375-10.3125 14.25-1.40625 6-0.375 12.1875 2.90625 17.4375 10.5 16.875 39.09375 45.28125 80.25 45.28125 40.96875 0 70.03125-28.3125 80.8125-45 3.28125-5.15625 4.40625-11.4375 3.09375-17.4375-1.3125-5.90625-4.96875-11.25-10.125-14.53125-5.15625-3.375-11.25-4.5-17.25-3.1875-6 1.3125-11.15625 4.78125-14.4375 9.9375l-0.09375 0.09375c-1.6875 2.4375-17.25 24-42 24-23.71875 0-38.53125-19.78125-41.25-23.71875-4.40625-6.75-11.8125-10.59375-19.5-10.59375z m185.15625-56.71875c-15.28125-0.09375-27.65625-12.46875-27.75-27.75v-30.9375c-0.5625-10.3125 4.59375-19.96875 13.40625-25.21875 8.8125-5.34375 19.78125-5.34375 28.59375 0 8.8125 5.34375 13.96875 15 13.40625 25.21875v30.9375c0 15.28125-12.375 27.75-27.65625 27.75z m0-83.25c-4.125 0-8.25 1.125-11.90625 3.28125-7.3125 4.40625-11.625 12.46875-11.15625 21v31.03125c0 12.65625 10.40625 22.96875 23.0625 22.96875 12.65625 0 22.96875-10.40625 22.96875-23.0625V454.8125c0.46875-8.53125-3.84375-16.59375-11.15625-21-3.5625-1.96875-7.6875-3.09375-11.8125-3.09375z m-248.15625 83.25v-2.34375 2.34375c-15.28125-0.09375-27.65625-12.46875-27.75-27.75v-31.03125c-0.375-10.125 4.78125-19.6875 13.59375-24.84375 8.71875-5.15625 19.59375-5.15625 28.40625 0 8.71875 5.25 13.96875 14.71875 13.59375 24.9375v30.9375c-0.09375 15.28125-12.5625 27.75-27.84375 27.75z m0-82.78125c-4.125 0-8.15625 1.125-11.8125 3.28125-7.3125 4.3125-11.625 12.28125-11.25 20.71875v31.03125c0 12.65625 10.40625 22.96875 23.0625 22.96875 12.65625 0 23.0625-10.3125 23.0625-23.0625v-30.9375c0.28125-8.53125-4.03125-16.5-11.25-20.8125-3.65625-2.15625-7.6875-3.1875-11.8125-3.1875z m-198.75-18.28125s-0.09375 0 0 0c-9.65625-0.09375-18.65625-5.25-23.625-13.40625-4.96875-8.25-5.34375-18.65625-0.9375-27.1875 68.4375-130.96875 201.75-212.25 347.8125-212.25 9.84375 0 19.125 5.34375 24 13.875 4.96875 8.53125 4.96875 19.21875 0 27.75-4.96875 8.53125-14.15625 13.875-24 13.875-125.34375 0-239.8125 69.9375-298.59375 182.4375-4.875 9.1875-14.34375 14.90625-24.65625 14.90625z m-0.09375-4.6875s0.09375 0 0 0c8.625 0 16.5-4.78125 20.4375-12.375 59.71875-114.09375 175.6875-184.96875 302.8125-184.96875 8.25 0 15.84375-4.40625 19.96875-11.53125 4.125-7.125 4.125-15.9375 0-23.0625a23.071875 23.071875 0 0 0-19.96875-11.53125c-144.28125 0-275.90625 80.34375-343.59375 209.71875-3.65625 7.125-3.375 15.75 0.75 22.59375 4.125 6.75 11.625 11.0625 19.59375 11.15625z m646.5 4.59375c-10.3125 0-19.78125-5.71875-24.5625-14.90625-20.8125-39.9375-48.9375-74.90625-83.4375-103.875-8.8125-7.5-12.09375-19.875-8.15625-30.75 3.9375-10.875 14.4375-18.1875 25.96875-18.28125 6.46875 0 12.84375 2.34375 17.8125 6.5625 40.125 33.5625 72.75 74.15625 96.9375 120.65625 4.40625 8.53125 4.125 18.9375-0.9375 27.1875-4.875 8.25-13.96875 13.3125-23.625 13.40625 0.09375 0 0 0 0 0z m-90.09375-163.03125c-9.5625 0.09375-18.28125 6.1875-21.5625 15.1875s-0.5625 19.3125 6.75 25.5C767 319.8125 795.40625 355.25 816.5 395.75c4.03125 7.59375 11.8125 12.375 20.4375 12.375 7.96875 0 15.5625-4.3125 19.6875-11.15625 4.125-6.84375 4.40625-15.46875 0.75-22.59375-23.90625-45.9375-56.15625-86.0625-95.8125-119.25-4.125-3.46875-9.375-5.34375-14.71875-5.34375z m-177.75 72.5625v-4.6875c61.875 0 115.96875-47.25 125.90625-109.875 5.53125-33.9375-2.90625-69.28125-23.25-96.9375-20.25-27.65625-51.375-46.3125-85.3125-51.28125-11.25 0.1875-20.71875 8.34375-22.59375 19.5-1.03125 6 0.5625 12.1875 4.125 17.0625 3.5625 4.96875 9 8.34375 15 9.28125 20.625 3.28125 38.90625 14.53125 51.375 31.78125 13.21875 18.1875 18.5625 40.6875 14.90625 63.375-6.375 40.40625-40.96875 70.96875-80.34375 70.96875-4.03125 0-8.0625-0.28125-16.03125-1.21875-11.34375 0.09375-20.8125 8.25-22.5 19.5-1.875 12.46875 6.65625 24.28125 19.125 26.34375 6.5625 1.03125 13.125 1.5 19.40625 1.5l0.1875 4.6875c-6.65625 0-13.40625-0.5625-20.25-1.59375-15-2.4375-25.3125-16.6875-23.0625-31.6875 2.0625-13.5 13.59375-23.4375 27.28125-23.4375H553.34375c7.875 0.9375 11.8125 1.21875 15.65625 1.21875 37.125 0 69.65625-28.78125 75.75-67.03125 3.375-21.375-1.59375-42.65625-14.0625-59.90625C618.875 123.6875 601.71875 113.09375 582.3125 110c-7.21875-1.125-13.78125-5.25-18.09375-11.15625-4.3125-5.8125-6.1875-13.40625-4.96875-20.625 2.15625-13.5 13.6875-23.34375 27.375-23.4375h0.375c35.25 5.0625 67.5 24.46875 88.59375 53.15625s29.8125 65.34375 24.09375 100.5c-10.40625 64.96875-66.46875 113.90625-130.59375 113.90625z" p-id="1723"></path><path d="M513.78125 966.3125c-154.125 0-298.5-96.65625-359.34375-240.65625l-1.78125-4.21875-4.5-0.75c-63.75-10.03125-110.625-65.0625-110.4375-129.5625-0.09375-72.5625 58.6875-131.34375 131.25-131.4375 13.96875 0 25.40625 11.34375 25.40625 25.40625 0 13.96875-11.34375 25.40625-25.40625 25.40625-44.53125 0-80.625 36.09375-80.625 80.625 0 44.4375 36.09375 80.53125 80.625 80.53125 10.21875 0 19.40625 6 23.4375 15.375 2.0625 3.46875 3.09375 5.25 3.84375 7.03125C246.40625 826.4375 374.09375 915.40625 513.875 915.40625c139.875 0 263.90625-85.21875 315.9375-217.03125 0.65625-1.59375 1.40625-3 2.25-4.40625 3.84375-14.25 14.0625-22.3125 25.875-22.3125 44.4375-0.09375 80.53125-36.09375 80.53125-80.53125 0-44.53125-36.09375-80.53125-80.53125-80.625-13.5-0.75-24-11.90625-24-25.40625 0-13.5 10.59375-24.65625 24-25.40625 72.5625 0.09375 131.34375 58.875 131.34375 131.34375 0.09375 64.21875-46.3125 118.96875-109.59375 129.375l-4.59375 0.75-1.78125 4.3125c-61.59375 146.34375-202.78125 240.75-359.53125 240.84375" p-id="1724"></path><path d="M513.78125 968.65625c-155.0625 0-300.28125-97.3125-361.5-242.0625l-1.3125-3-3.28125-0.5625c-31.40625-4.96875-60-20.90625-80.625-45.09375s-31.875-55.03125-31.78125-86.8125c0.09375-73.6875 60.09375-133.6875 133.6875-133.6875 15.28125 0 27.75 12.46875 27.75 27.75S184.25 512.9375 168.96875 512.9375c-43.125 0-78.28125 35.15625-78.28125 78.28125s35.15625 78.1875 78.28125 78.1875c11.15625 0 21.09375 6.5625 25.5 16.6875 2.15625 3.5625 3.1875 5.34375 3.9375 7.21875C248.1875 824.84375 374.9375 913.25 513.875 913.25s262.125-84.5625 313.78125-215.53125c0.65625-1.59375 1.40625-3.09375 2.34375-4.5 4.125-14.625 14.8125-23.71875 28.03125-23.71875 43.03125-0.09375 78.1875-35.15625 78.1875-78.1875 0-43.125-35.15625-78.1875-78.1875-78.28125h-0.09375c-14.71875-0.84375-26.25-13.03125-26.25-27.75 0-14.71875 11.53125-26.90625 26.25-27.75h0.09375c73.6875 0.09375 133.6875 60 133.6875 133.6875 0.09375 31.59375-11.15625 62.25-31.59375 86.34375-20.4375 24.09375-48.84375 40.21875-79.96875 45.375l-3.28125 0.5625-1.3125 3.09375C813.5 873.59375 671.5625 968.5625 513.78125 968.65625zM168.96875 462.03125c-71.15625 0.09375-129 58.03125-129.09375 129.09375-0.1875 63.84375 45.375 117.375 108.46875 127.3125l5.8125 0.9375 2.34375 5.34375c60.46875 143.0625 204.09375 239.25 357.1875 239.25 155.90625 0 296.15625-93.9375 357.375-239.25l2.25-5.4375 5.8125-0.9375c62.53125-10.3125 107.8125-63.75 107.625-127.125-0.09375-71.0625-57.9375-128.90625-129-129-12.1875 0.65625-21.75 10.78125-21.75 23.0625 0 12.1875 9.5625 22.3125 21.75 23.0625 45.65625 0.09375 82.875 37.3125 82.875 82.96875-0.09375 45.65625-37.21875 82.875-82.875 82.875-11.0625 0-20.15625 7.875-23.625 20.625l-0.09375 0.375-0.1875 0.28125c-0.84375 1.21875-1.5 2.625-2.0625 4.03125C779.375 832.25 654.5 918.03125 513.59375 918.03125c-140.8125 0-269.34375-89.53125-319.78125-222.84375-0.65625-1.59375-1.59375-3.1875-3.65625-6.65625l-0.1875-0.28125c-3.5625-8.53125-11.90625-13.96875-21.28125-13.96875-45.75 0-82.96875-37.21875-82.96875-82.875 0-45.75 37.21875-82.96875 82.96875-82.96875 12.65625 0 23.0625-10.3125 23.0625-23.0625s-10.125-23.34375-22.78125-23.34375z" p-id="1725"></path></svg>