<?xml version="1.0" standalone="no"?><!DOCTYPE svg PUBLIC "-//W3C//DTD SVG 1.1//EN" "http://www.w3.org/Graphics/SVG/1.1/DTD/svg11.dtd"><svg t="1560259309515" class="icon" style="" viewBox="0 0 1138 1024" version="1.1" xmlns="http://www.w3.org/2000/svg" p-id="1298" xmlns:xlink="http://www.w3.org/1999/xlink" width="222.265625" height="200"><defs><style type="text/css"></style></defs><path d="M411.9999998 215.4091001L712.00000039 215.4091001 712.00000039 140.40910039 411.9999998 140.40910039 411.9999998 215.4091001 411.9999998 215.4091001ZM861.9999998 215.4091001L937.21100029 215.4091001C957.59065039 215.4091001 974.4999998 232.83725029 974.4999998 255.08219961L974.4999998 834.8269001C974.4999998 856.96354971 957.41884971 874.49999961 936.81450019 874.49999961L187.1855 874.49999961C166.5409001 874.49999961 149.50000039 857.0288498 149.50000039 834.8269001L149.50000039 255.08219961C149.50000039 232.84819971 166.47220039 215.4091001 187.29910039 215.4091001L263.71205 215.4091001 263.71205 140.40910039 187.29910039 140.40910039C124.58845039 140.40910039 74.4999998 191.87555029 74.4999998 255.08219961L74.4999998 834.8269001C74.4999998 898.03745 124.6952498 949.5000002 187.1855 949.5000002L936.81450019 949.5000002C999.28814961 949.5000002 1049.50000039 897.9497501 1049.50000039 834.8269001L1049.50000039 255.08219961C1049.50000039 191.9146001 999.52775 140.40910039 937.21100029 140.40910039L861.9999998 140.40910039 861.9999998 215.4091001ZM299.4999998 99.2747999C299.4999998 78.68849961 316.14494961 62 337.0000001 62 357.7106999 62 374.50000039 78.68485039 374.50000039 99.2747999L374.50000039 256.72519971C374.50000039 277.3115 357.85504971 293.99999961 337.0000001 293.99999961 316.28930029 293.99999961 299.4999998 277.3151501 299.4999998 256.72519971L299.4999998 99.2747999ZM749.4999998 99.2456C749.4999998 78.67540039 766.14494961 62 787.0000001 62 807.7106999 62 824.50000039 78.67180039 824.50000039 99.2456L824.50000039 256.57259961C824.50000039 277.14275 807.85504971 293.81819961 787.0000001 293.81819961 766.28930029 293.81819961 749.4999998 277.1464001 749.4999998 256.57259961L749.4999998 99.2456ZM299.4999998 447.22724961C299.4999998 426.5165999 316.37309961 409.72725019 337.25669961 409.72725019L786.74329971 409.72725019C807.59575039 409.72725019 824.50000039 426.3722 824.50000039 447.22724961 824.50000039 467.93795029 807.62689971 484.7272499 786.74329971 484.7272499L337.25669961 484.7272499C316.40424981 484.7272499 299.4999998 468.0823502 299.4999998 447.22724961ZM299.4999998 640.40909961C299.4999998 619.6983998 316.37309961 602.90910019 337.25669961 602.90910019L786.74329971 602.90910019C807.59575039 602.90910019 824.50000039 619.5539999 824.50000039 640.40909961 824.50000039 661.1197502 807.62689971 677.9090999 786.74329971 677.9090999L337.25669961 677.9090999C316.40424981 677.9090999 299.4999998 661.2641501 299.4999998 640.40909961Z" p-id="1299"></path></svg>