<?xml version="1.0" standalone="no"?><!DOCTYPE svg PUBLIC "-//W3C//DTD SVG 1.1//EN" "http://www.w3.org/Graphics/SVG/1.1/DTD/svg11.dtd"><svg t="1560180577514" class="icon" style="" viewBox="0 0 1568 1024" version="1.1" xmlns="http://www.w3.org/2000/svg" p-id="1274" xmlns:xlink="http://www.w3.org/1999/xlink" width="306.25" height="200"><defs><style type="text/css"></style></defs><path d="M1372.83163877 62.02812411l-1069.81344316 0c-41.03309268 0-81.47557881 32.98959404-89.57532569 73.65707316l-81.92556474 411.20277451 319.63063623 0 77.36945712-137.27383507c7.0591544-12.51523389 20.50248428-19.54626416 35.09890311-19.01190585 14.31517763 0.92809599 26.91478388 10.01218711 32.31461516 23.37114463l89.57532569 221.36495712 125.7429454-360.63560478c5.25921065-14.96203242 19.34939531-25.08671602 35.21139961-25.17108838 17.69007217 0.19686885 30.12093369 9.81531826 35.4645167 24.77735068l93.25958554 258.48879698 220.18374404 0c20.72747723 0 37.48945342 16.76197616 37.48945343 37.48945342s-16.76197616 37.48945342-37.48945343 37.48945341l-246.50792137 0c-15.83388018 0-29.92406484-9.89969062-35.23952375-24.74922656l-66.34480164-183.81925547-123.71800869 354.84203584c-5.14671417 14.73703947-18.89940937 24.74922657-34.50829659 25.11484014l-0.89997186 0c-15.21514954 0-29.02409297-9.22471171-34.76141369-23.42739287l-97.78756905-241.52995195-49.92031493 88.56285734c-6.63729259 11.81213086-19.12440234 19.09627822-32.65210459 19.09627821l-356.50135898 0-53.09834063 266.47604735c-8.07162276 40.58310675 18.87128526 73.65707315 60.21374326 73.65707316l1069.81344316 0c41.03309268 0 81.47557881-32.96146992 89.63157393-73.65707316l149.98593779-752.6858537c8.07162276-40.52685849-18.87128526-73.65707315-60.26999152-73.65707314z" p-id="1275"></path></svg>