<?xml version="1.0" standalone="no"?><!DOCTYPE svg PUBLIC "-//W3C//DTD SVG 1.1//EN" "http://www.w3.org/Graphics/SVG/1.1/DTD/svg11.dtd"><svg t="1560872572384" class="icon" style="" viewBox="0 0 1024 1024" version="1.1" xmlns="http://www.w3.org/2000/svg" p-id="1430" xmlns:xlink="http://www.w3.org/1999/xlink" width="200" height="200"><defs><style type="text/css"></style></defs><path d="M797 137H227c-82.5 0-150 67.5-150 150v450c0 82.5 67.5 150 150 150h570c82.5 0 150-67.5 150-150V287c0-82.5-67.5-150-150-150z m90 600c0 49.5-40.5 90-90 90H227c-49.5 0-90-40.5-90-90V287c0-49.5 40.5-90 90-90h570c49.5 0 90 40.5 90 90v450z" p-id="1431"></path><path d="M462.5 491c21-21 34.5-51 34.5-84 0-66-54-120-120-120s-120 54-120 120c0 33 13.5 63 34.5 84C243.5 519.5 212 572 212 632v54c0 28.5 22.5 51 49.5 51h231c27 0 49.5-22.5 49.5-51V632c0-60-31.5-112.5-79.5-141zM317 407c0-33 27-60 60-60s60 27 60 60-27 60-60 60-60-27-60-60z m165 270H272v-45c0-58.5 46.5-105 105-105s105 46.5 105 105v45z m300-195H632c-16.5 0-30 13.5-30 30s13.5 30 30 30h150c16.5 0 30-13.5 30-30s-13.5-30-30-30z m0-150H602c-16.5 0-30 13.5-30 30s13.5 30 30 30h180c16.5 0 30-13.5 30-30s-13.5-30-30-30z m0 300H662c-16.5 0-30 13.5-30 30s13.5 30 30 30h120c16.5 0 30-13.5 30-30s-13.5-30-30-30z" p-id="1432"></path></svg>