<?xml version="1.0" standalone="no"?><!DOCTYPE svg PUBLIC "-//W3C//DTD SVG 1.1//EN" "http://www.w3.org/Graphics/SVG/1.1/DTD/svg11.dtd"><svg t="1560176874600" class="icon" style="" viewBox="0 0 1024 1024" version="1.1" xmlns="http://www.w3.org/2000/svg" p-id="2792" xmlns:xlink="http://www.w3.org/1999/xlink" width="200" height="200"><defs><style type="text/css"></style></defs><path d="M897.093147 595.133396c0.698918-12.993942 1.046842-26.424836 1.046842-40.160675 0-92.921319-36.628222-181.571359-103.039771-249.637594-47.354518-48.400337-107.745956-83.807754-175.726234-102.81976-51.582819-12.731976-110.451578-15.567557-157.762093-17.792225-35.886325-1.699712-66.889433-3.182482-83.283822-8.326643-43.168172-13.518898-75.654051-40.46562-99.201349-82.283028-14.126742-24.986067-32.571836-28.692482-42.296315-28.692482-3.706415 0-7.411807 0.522909-10.987239 1.482771-41.425482 11.468193-56.55711 82.149998-56.861032 139.143037-0.304945 48.357358 9.026584 96.80272 27.121707 140.713812-0.565888 0.60989-1.089821 1.306762-1.613754 2.092661-44.650943 62.093197-68.240197 136.046512-68.240197 213.836203 0 10.989285 0.305969 21.803585 0.915859 32.443923-43.518143 18.486026-68.982094 66.75845-59.912531 115.988688 5.101181 27.469632 20.144806 51.190893 42.426275 66.713424 21.759583 15.174608 49.099255 20.667715 73.735351 15.391549 0.39295-0.041956 0.74292-0.128937 1.134847-0.216941 13.035898 21.367657 28.212552 40.98853 45.216831 58.386782 35.45142 36.236296 78.882582 63.881936 129.202641 82.108043 46.131667 16.657378 96.975659 25.072025 151.133116 25.072025l5.712095-0.042979c159.198815-1.744737 270.217305-57.032948 330.044902-164.433026 25.288966 3.793396 50.276057-2.746554 71.030753-18.096147 21.802562-16.308431 36.148291-40.509622 40.421618-68.154239C964.681498 660.105153 939.084517 613.18554 897.093147 595.133396zM143.12421 726.426651c-8.894577-6.193049-14.956643-15.785521-17.049305-26.991748-2.442632-13.343913 1.307785-26.684756 9.417487-36.279275 4.711302 24.070208 11.207249 47.093575 19.404955 68.809155C150.753981 730.829937 146.787646 728.956264 143.12421 726.426651zM745.916029 823.970244c-52.325739 47.092551-129.942491 71.510684-230.755548 72.600505l-4.971222 0.044002c-98.809423 0-181.222411-30.872125-238.256382-89.258906-56.904011-58.213843-85.814458-140.537803-85.814458-244.667396 0-55.5512 14.6957-109.009739 42.515303-155.623383 43.256176 63.095014 106.570177 107.136066 188.41523 131.032312 79.274508 23.023366 152.61691 23.023366 210.829729 0.260943 53.806463-21.10569 92.703355-60.436464 109.61963-110.7555 9.638521-28.779464 11.208273-59.214636 4.841262-88.517009 3.617387 3.400446 7.150864 6.800893 10.595312 10.377348 54.986335 56.250118 85.292572 129.245619 85.292572 205.509561C838.227458 678.330236 807.136346 768.854972 745.916029 823.970244zM898.141012 698.039113c-1.743714 11.337209-7.543813 21.104667-16.308431 27.646664-2.574638 1.918699-5.409197 3.488451-8.416693 4.710278 6.757914-20.62576 12.122085-42.73429 16.133446-66.104557C896.743176 673.448042 900.057665 685.655062 898.141012 698.039113zM676.977937 609.521081c-46.527686 0-84.419691 39.680744-84.419691 88.518033 0 17.09433 13.430894 30.960129 29.91124 30.960129 16.571421 0 29.999245-13.865799 29.999245-30.960129 0-14.649652 10.991332-26.553773 24.508183-26.553773 13.55983 0 24.592095 11.904121 24.592095 26.553773 0 17.09433 13.430894 30.960129 29.912263 30.960129 16.526395 0 29.956266-13.865799 29.956266-30.960129C761.439584 649.201825 723.545532 609.521081 676.977937 609.521081zM361.409748 609.521081c-46.569642 0-84.461647 39.680744-84.461647 88.518033 0 17.09433 13.428847 30.960129 29.956266 30.960129 16.526395 0 29.956266-13.865799 29.956266-30.960129 0-14.649652 11.030218-26.553773 24.549116-26.553773s24.549116 11.904121 24.549116 26.553773c0 17.09433 13.430894 30.960129 29.957289 30.960129 16.526395 0 29.955242-13.865799 29.955242-30.960129C445.870372 649.201825 407.97939 609.521081 361.409748 609.521081z" p-id="2793"></path></svg>