<?xml version="1.0" standalone="no"?><!DOCTYPE svg PUBLIC "-//W3C//DTD SVG 1.1//EN" "http://www.w3.org/Graphics/SVG/1.1/DTD/svg11.dtd"><svg t="1560176900607" class="icon" style="" viewBox="0 0 1024 1024" version="1.1" xmlns="http://www.w3.org/2000/svg" p-id="3508" xmlns:xlink="http://www.w3.org/1999/xlink" width="200" height="200"><defs><style type="text/css"></style></defs><path d="M968 992H56c-13.248 0-24-10.688-24-24s10.752-24 24-24h912c13.248 0 24 10.752 24 24 0 13.312-10.688 24-24 24zM176 560h-48c-26.496 0-48 21.504-48 48v240c0 26.56 21.504 48 48 48h48c26.496 0 48-21.504 48-48V608c0-26.496-21.504-48-48-48z m-48 288V608h48v240h-48zM416 272h-48c-26.496 0-48 21.504-48 48v528c0 26.56 21.504 48 48 48h48c26.496 0 48-21.504 48-48V320c0-26.496-21.504-48-48-48z m-48 576V320h48v528h-48zM656 368h-48c-26.56 0-48 21.44-48 48v432c0 26.56 21.504 48 48 48h48c26.496 0 48-21.504 48-48V416c0-26.56-21.44-48-48-48z m-48 480V416h48v432h-48zM896 32h-48c-26.496 0-48 21.504-48 48v768c0 26.496 21.504 48 48 48h48c26.496 0 48-21.504 48-48V80c0-26.496-21.44-48-48-48z m-48 816V80h48v768h-48z" p-id="3509"></path></svg>