<?xml version="1.0" standalone="no"?><!DOCTYPE svg PUBLIC "-//W3C//DTD SVG 1.1//EN" "http://www.w3.org/Graphics/SVG/1.1/DTD/svg11.dtd"><svg t="1560176908795" class="icon" style="" viewBox="0 0 1024 1024" version="1.1" xmlns="http://www.w3.org/2000/svg" p-id="3750" xmlns:xlink="http://www.w3.org/1999/xlink" width="200" height="200"><defs><style type="text/css"></style></defs><path d="M870.4 329.728c-59.392-151.552-167.936-266.24-378.88-262.144-10.24 2.048-22.528 2.048-32.768 4.096-26.624 4.096-53.248 10.24-77.824 20.48-92.16 34.816-159.744 96.256-202.752 182.272-8.192 16.384-20.48 36.864-22.528 57.344-49.152 12.288-75.776 24.576-94.208 67.584-30.72 73.728 14.336 161.792 86.016 163.84 8.192 18.432 16.384 36.864 24.576 55.296 43.008 69.632 118.784 116.736 204.8 143.36 104.448 30.72 249.856 14.336 331.776-22.528 30.72-14.336 57.344-34.816 81.92-53.248 34.816-26.624 75.776-69.632 83.968-120.832 49.152-8.192 77.824-34.816 92.16-79.872C991.232 403.456 940.032 331.776 870.4 329.728zM897.024 514.048c-12.288 8.192-32.768 8.192-51.2 10.24C819.2 634.88 731.136 696.32 622.592 724.992c-198.656 51.2-417.792-40.96-446.464-200.704-18.432-2.048-40.96-2.048-53.248-10.24-43.008-26.624-40.96-108.544 2.048-135.168 14.336-8.192 34.816-8.192 55.296-8.192 8.192-22.528 14.336-43.008 22.528-65.536 20.48-47.104 90.112-137.216 141.312-151.552 2.048 49.152 20.48 106.496 49.152 129.024 10.24-6.144 20.48-14.336 28.672-20.48l0-2.048c-22.528-34.816-43.008-69.632-43.008-126.976 30.72-6.144 59.392-22.528 98.304-24.576 0 47.104 4.096 92.16 20.48 126.976 8.192 14.336 16.384 28.672 24.576 43.008 0 0 2.048 0 2.048 2.048 10.24-6.144 20.48-12.288 30.72-20.48-8.192-14.336-14.336-26.624-22.528-40.96-12.288-30.72-16.384-67.584-16.384-110.592 40.96-4.096 77.824 14.336 110.592 20.48-4.096 30.72-10.24 73.728 0 104.448 8.192 16.384 14.336 32.768 22.528 49.152 2.048 0 2.048 2.048 4.096 2.048 10.24-6.144 20.48-12.288 28.672-16.384 0-12.288-14.336-28.672-18.432-43.008-6.144-22.528-4.096-55.296-2.048-77.824 16.384 4.096 32.768 18.432 45.056 26.624 73.728 51.2 98.304 106.496 133.12 198.656 34.816 6.144 57.344 2.048 73.728 22.528C942.08 430.08 933.888 493.568 897.024 514.048zM362.496 360.448c-10.24 6.144-18.432 8.192-24.576 18.432-16.384 26.624 4.096 71.68 38.912 65.536C421.888 434.176 417.792 358.4 362.496 360.448zM643.072 360.448c-8.192 6.144-16.384 8.192-22.528 16.384-16.384 26.624 0 73.728 36.864 65.536C700.416 434.176 700.416 358.4 643.072 360.448zM542.72 512l-116.736 0c-2.048 2.048-4.096 4.096-6.144 6.144-8.192 18.432 10.24 36.864 16.384 45.056 38.912 49.152 118.784 43.008 153.6-6.144 8.192-10.24 16.384-26.624 12.288-45.056C585.728 509.952 561.152 512 542.72 512zM776.192 747.52c-2.048 14.336-4.096 26.624-6.144 40.96-12.288 34.816-49.152 77.824-102.4 63.488-16.384-8.192-32.768-16.384-49.152-24.576-20.48 24.576-26.624 55.296-55.296 73.728-71.68 43.008-139.264-16.384-157.696-71.68-18.432-2.048-40.96 20.48-63.488 24.576-57.344 10.24-96.256-55.296-94.208-106.496-12.288-8.192-24.576-16.384-34.816-24.576C188.416 829.44 286.72 931.84 387.072 880.64c22.528 26.624 36.864 51.2 73.728 65.536 71.68 28.672 155.648-12.288 174.08-65.536 12.288 4.096 24.576 10.24 40.96 12.288 22.528 4.096 40.96-4.096 55.296-8.192 59.392-24.576 90.112-81.92 81.92-163.84C798.72 731.136 788.48 739.328 776.192 747.52z" p-id="3751"></path></svg>