<?xml version="1.0" standalone="no"?><!DOCTYPE svg PUBLIC "-//W3C//DTD SVG 1.1//EN" "http://www.w3.org/Graphics/SVG/1.1/DTD/svg11.dtd"><svg t="1560176833594" class="icon" style="" viewBox="0 0 1024 1024" version="1.1" xmlns="http://www.w3.org/2000/svg" p-id="1842" xmlns:xlink="http://www.w3.org/1999/xlink" width="200" height="200"><defs><style type="text/css"></style></defs><path d="M816.64 381.44H584.96c-15.36 0-26.88-11.52-26.88-26.88 0-15.36 11.52-26.88 26.88-26.88h231.68c15.36 0 26.88 11.52 26.88 26.88 0 14.08-12.8 26.88-26.88 26.88zM816.64 480h-81.92c-15.36 0-26.88-11.52-26.88-26.88s11.52-26.88 26.88-26.88h81.92c15.36 0 26.88 11.52 26.88 26.88s-12.8 26.88-26.88 26.88zM341.76 654.08c-62.72 0-112.64-51.2-112.64-112.64 0-62.72 51.2-112.64 112.64-112.64s112.64 51.2 112.64 112.64c0 62.72-49.92 112.64-112.64 112.64z m0-171.52c-32 0-58.88 26.88-58.88 58.88s26.88 58.88 58.88 58.88c32 0 58.88-26.88 58.88-58.88s-25.6-58.88-58.88-58.88z" p-id="1843"></path><path d="M499.2 803.84c-12.8 0-24.32-10.24-26.88-23.04-8.96-64-65.28-112.64-130.56-112.64s-120.32 47.36-130.56 111.36c-2.56 15.36-16.64 24.32-30.72 23.04-15.36-2.56-24.32-16.64-23.04-30.72C172.8 679.68 249.6 614.4 341.76 614.4S512 682.24 526.08 773.12c2.56 15.36-7.68 28.16-23.04 30.72H499.2z" p-id="1844"></path><path d="M605.44 605.44l-79.36 154.88" p-id="1845"></path><path d="M526.08 787.2c-3.84 0-8.96-1.28-12.8-2.56-12.8-6.4-19.2-23.04-11.52-35.84l79.36-154.88c6.4-12.8 23.04-19.2 35.84-11.52 12.8 6.4 19.2 23.04 11.52 35.84l-78.08 153.6c-5.12 8.96-15.36 15.36-24.32 15.36z"  p-id="1846"></path><path d="M888.32 814.08H500.48c-15.36 0-26.88-11.52-26.88-26.88s11.52-26.88 26.88-26.88h387.84c15.36 0 26.88-12.8 26.88-26.88V273.92c0-15.36-12.8-26.88-26.88-26.88H139.52c-15.36 0-26.88 11.52-26.88 26.88v458.24c0 15.36 11.52 26.88 26.88 26.88h44.8c15.36 0 26.88 11.52 26.88 26.88s-11.52 26.88-26.88 26.88h-44.8c-44.8 0-81.92-35.84-81.92-81.92V273.92c0-44.8 35.84-81.92 81.92-81.92h748.8c44.8 0 81.92 35.84 81.92 81.92v458.24c-1.28 44.8-37.12 81.92-81.92 81.92z"  p-id="1847"></path></svg>