<?xml version="1.0" standalone="no"?><!DOCTYPE svg PUBLIC "-//W3C//DTD SVG 1.1//EN" "http://www.w3.org/Graphics/SVG/1.1/DTD/svg11.dtd"><svg t="1560176883175" class="icon" style="" viewBox="0 0 1024 1024" version="1.1" xmlns="http://www.w3.org/2000/svg" p-id="3034" xmlns:xlink="http://www.w3.org/1999/xlink" width="200" height="200"><defs><style type="text/css"></style></defs><path d="M923.373 645.903c0 0-3.339 5.008-63.453 68.751-45.342 48.084-158.383 157.628-158.383 157.628l-62.286 63.621c-71.327 72.799-186.967 72.799-258.294 0 0 0-80.409-62.638-151.366-135.065-71.097-72.571-132.749-154.935-132.749-154.935-71.322-72.8-71.322-190.83 0-263.633 0 0 53.938-74.494 120.868-142.811 74.703-76.241 163.254-147.185 163.254-147.185 71.325-72.799 186.967-72.799 258.289 0 0 0 80.55 62.774 151.574 135.268 71.036 72.503 132.545 154.727 132.545 154.727 71.322 72.799 71.322 190.833 0 263.633v0zM888.215 393.131c0 0-56.279-75.471-121.262-142.019-64.983-66.543-138.674-124.157-138.674-124.157-65.253-66.819-171.054-66.819-236.314 0 0 0-81.014 65.116-149.353 135.095-61.234 62.708-110.582 131.083-110.582 131.083-65.248 66.818-65.248 175.154 0 241.978 0 0 56.401 75.599 121.45 142.208 64.921 66.483 138.485 123.969 138.485 123.969 65.259 66.819 171.058 66.819 236.314 0l56.988-58.395c0 0 103.415-100.545 144.901-144.682 54.998-58.507 58.048-63.101 58.048-63.101 65.251-66.819 65.251-175.161-0.001-241.979v0zM738.745 474.752z" p-id="3035"></path><path d="M462.626 561.569v142.45h94.963v-142.45h142.45v-94.965h-142.45v-142.447h-94.963v142.445h-142.45v94.965h142.45z" p-id="3036"></path></svg>