<?xml version="1.0" standalone="no"?><!DOCTYPE svg PUBLIC "-//W3C//DTD SVG 1.1//EN" "http://www.w3.org/Graphics/SVG/1.1/DTD/svg11.dtd"><svg t="1560176912399" class="icon" style="" viewBox="0 0 1024 1024" version="1.1" xmlns="http://www.w3.org/2000/svg" p-id="3868" xmlns:xlink="http://www.w3.org/1999/xlink" width="200" height="200"><defs><style type="text/css"></style></defs><path d="M880.4547 843.554278l-77.827553 0 0-38.888705 77.827553 0c21.462824 0 38.889729-17.426905 38.889729-38.889729L919.344428 357.275079 763.737418 357.275079c-42.993187 0-77.809133-34.815947-77.809133-77.783551L685.928285 143.311986 685.928285 104.422258 335.795882 104.422258c-21.48636 0-38.913265 17.426905-38.913265 38.889729l-38.913265 0c0-42.964534 34.859949-77.780481 77.827553-77.780481l291.77632 0 10.387581 0 20.091594 0 54.398958 0 240.11573 258.566964 4.912893 5.921873 0.76134 7.831362 0 58.350966 0 369.56601C958.240297 808.738331 923.384441 843.554278 880.4547 843.554278L880.4547 843.554278zM443.439508 182.245717l20.104897 0 54.384631 0 240.129033 258.527055 4.991688 5.222955 0.687662 8.569166 0 8.630564 0 49.681516 0 369.571127c0 42.962487-34.854832 77.818343-77.809133 77.818343l-544.654724 0c-42.97272 0-77.809133-34.855856-77.809133-77.818343L63.464427 260.029268c0-42.967604 34.83539-77.783551 77.809133-77.783551L433.04681 182.245717 443.439508 182.245717 443.439508 182.245717zM102.361319 260.029268l0 622.413716c0 21.506826 17.426905 38.933731 38.913265 38.933731l544.654724 0c21.48636 0 38.875402-17.426905 38.875402-38.933731L724.80471 473.989291 569.212026 473.989291c-42.967604 0-77.804017-34.815947-77.804017-77.784574L491.408009 221.139539 141.274584 221.139539C119.788224 221.139539 102.361319 238.563374 102.361319 260.029268L102.361319 260.029268zM199.63169 493.455645l194.505949 0 0 38.888705L199.63169 532.344351 199.63169 493.455645 199.63169 493.455645zM199.63169 376.742457l194.505949 0 0 38.889729L199.63169 415.632185 199.63169 376.742457 199.63169 376.742457zM627.572202 649.062656 199.63169 649.062656l0-38.894845 427.940512 0L627.572202 649.062656 627.572202 649.062656zM627.572202 765.775844 199.63169 765.775844l0-38.933731 427.940512 0L627.572202 765.775844 627.572202 765.775844zM627.572202 765.775844" p-id="3869"></path></svg>