<?xml version="1.0" standalone="no"?><!DOCTYPE svg PUBLIC "-//W3C//DTD SVG 1.1//EN" "http://www.w3.org/Graphics/SVG/1.1/DTD/svg11.dtd"><svg t="1560176895450" class="icon" style="" viewBox="0 0 1024 1024" version="1.1" xmlns="http://www.w3.org/2000/svg" p-id="3389" xmlns:xlink="http://www.w3.org/1999/xlink" width="200" height="200"><defs><style type="text/css"></style></defs><path d="M664.59636406 780.03636406h117.3818175a23.78181844 23.78181844 0 0 0 0-47.60727281h-117.3818175a23.78181844 23.78181844 0 0 0 0 47.60727281zM664.59636406 881.40363594h172.42909031a23.78181844 23.78181844 0 0 0 0-47.60727188h-172.42909031a23.78181844 23.78181844 0 0 0 0 47.60727188zM664.59636406 973.56363594H882.90909125a23.78181844 23.78181844 0 1 0 0-47.60727188H664.59636406a23.78181844 23.78181844 0 0 0 0 47.60727188zM534.21090875 560.45818156c-145.92 0-264.17454563-118.29818156-264.17454469-264.21818156C270.03636406 150.29818156 388.29090875 32 534.21090875 32c145.89818156 0 264.15272719 118.29818156 264.15272719 264.21818156 0 145.94181844-118.25454563 264.24-264.15272719 264.24z m0-47.60727281c119.58545437 0 216.56727281-96.98181844 216.56727281-216.61090875 0-119.65090875-96.98181844-216.65454562-216.56727281-216.65454562-119.60727281 0-216.58909125 97.00363594-216.58909031 216.65454562 0 119.62909125 96.98181844 216.61090875 216.58909031 216.61090875z" p-id="3390"></path><path d="M856.24727281 666.95272719a435.53454562 435.53454562 0 0 0-322.03636406-141.77454563C292.98909125 525.17818156 97.45454562 720.8 97.45454562 962.04363594a23.78181844 23.78181844 0 1 0 47.60727282 0c0-214.97454563 174.21818156-389.23636406 389.14909031-389.23636313a387.92727281 387.92727281 0 0 1 286.93090969 126.30545438 23.78181844 23.78181844 0 1 0 35.10545437-32.16z" p-id="3391"></path></svg>