<?xml version="1.0" standalone="no"?><!DOCTYPE svg PUBLIC "-//W3C//DTD SVG 1.1//EN" "http://www.w3.org/Graphics/SVG/1.1/DTD/svg11.dtd"><svg t="1560176878694" class="icon" style="" viewBox="0 0 1028 1024" version="1.1" xmlns="http://www.w3.org/2000/svg" p-id="2916" xmlns:xlink="http://www.w3.org/1999/xlink" width="200.78125" height="200"><defs><style type="text/css"></style></defs><path d="M1018.176 252.288L782.624 16.736a36.96 36.96 0 0 0-52.32 0 36.96 36.96 0 0 0 0 52.352l91.584 91.584-88.992 88.992-84.032-84.064a47.712 47.712 0 0 0-67.456 0L185.152 561.856a118.272 118.272 0 0 0-33.664 98.784l19.52 150.912-147.36 147.328a36.992 36.992 0 1 0 52.352 52.352l149.632-149.632 149.472 20.992a118.272 118.272 0 0 0 100.256-33.664L869.376 453.44a47.68 47.68 0 0 0-0.064-67.36l-84.096-84.096 88.96-88.992 91.584 91.616a36.992 36.992 0 1 0 52.416-52.32zM248.576 764.736a27.008 27.008 0 0 1-38.272 0 27.072 27.072 0 1 1 38.272 0z m141.248-208.672l-107.2 107.2a36.896 36.896 0 0 1-52.32 0 36.96 36.96 0 0 1 0-52.32l107.2-107.2a36.96 36.96 0 0 1 52.32 0 36.896 36.896 0 0 1 0 52.32z m16.384-110.592l7.936-7.936 32.736 32.736a18.496 18.496 0 1 0 26.144-26.208l-32.672-32.704 18.176-18.176 32.736 32.736a18.56 18.56 0 0 0 26.144 0 18.496 18.496 0 0 0 0-26.176l-32.704-32.736 18.176-18.176 32.704 32.704a18.464 18.464 0 1 0 26.176-26.144l-32.736-32.736 18.208-18.208 32.704 32.704a18.528 18.528 0 1 0 26.176-26.144l-32.704-32.704 21.344-21.344a28.8 28.8 0 0 1 40.736 0l45.088 45.088-208.224 208.224-66.144-64.8z m371.712-46.08a28.8 28.8 0 0 1 0 40.768l-186.688 186.688-66.112-64.8 207.712-207.712 45.088 45.056z" p-id="2917"></path></svg>