<?xml version="1.0" standalone="no"?><!DOCTYPE svg PUBLIC "-//W3C//DTD SVG 1.1//EN" "http://www.w3.org/Graphics/SVG/1.1/DTD/svg11.dtd"><svg t="1560176870250" class="icon" style="" viewBox="0 0 1024 1024" version="1.1" xmlns="http://www.w3.org/2000/svg" p-id="2674" xmlns:xlink="http://www.w3.org/1999/xlink" width="200" height="200"><defs><style type="text/css"></style></defs><path d="M512 90.125C279.41706769 90.125 90.125 279.41706769 90.125 512c0 232.5504809 189.29206768 421.875 421.875 421.875 232.58293231 0 421.875-189.3245191 421.875-421.875C933.875 279.41706769 744.58293231 90.125 512 90.125zM189.265625 512c0-178.22596179 144.50841321-322.734375 322.734375-322.734375 68.05168232 0 131.33293231 21.06129776 183.515625 57.50480731L246.77043232 695.54807724C210.32692276 643.33293231 189.265625 580.05168232 189.265625 512zM512 834.734375c-66.42908679 0-127.63341321-20.02283679-179.296875-54.3245191L780.40985589 332.703125c34.33413455 51.69591321 54.35697134 112.90024045 54.35697135 179.296875C834.734375 690.22596179 690.22596179 834.734375 512 834.734375z" p-id="2675"></path></svg>