<?xml version="1.0" standalone="no"?><!DOCTYPE svg PUBLIC "-//W3C//DTD SVG 1.1//EN" "http://www.w3.org/Graphics/SVG/1.1/DTD/svg11.dtd"><svg t="1560176861139" class="icon" style="" viewBox="0 0 1024 1024" version="1.1" xmlns="http://www.w3.org/2000/svg" p-id="2437" xmlns:xlink="http://www.w3.org/1999/xlink" width="200" height="200"><defs><style type="text/css"></style></defs><path d="M791.36 563.36c65.28-45.12 104.16-117.6 104.16-196.32 0-131.52-107.04-238.56-238.56-238.56-20.16 0-36 15.84-36 36s15.84 36 36 36c92.16 0 167.04 74.88 167.04 167.04 0 60-31.2 113.76-83.52 144-31.68 19.68-48.96 43.2-46.56 65.28 1.44 13.44 10.56 32.64 48 46.08 101.28 36 168.96 131.52 168.96 237.12 0 20.16 15.84 36 36 36s36-15.84 36-36c-0.48-128.64-74.88-243.84-191.52-296.64z" p-id="2438"></path><path d="M537.44 559.04c60.96-45.6 97.44-116.16 97.44-192C634.88 235.04 527.84 128 396.32 128c-131.52 0-238.56 107.04-238.56 238.56 0 75.84 36 146.4 97.44 192-132.48 48.96-213.6 162.72-213.6 300.96 0 20.16 15.84 36 36 36s36-15.84 36-36c0-74.4 28.32-138.72 82.56-184.8 51.36-44.16 122.4-68.64 200.16-68.64s148.8 24.48 200.16 68.64c53.76 46.56 82.56 110.4 82.56 184.8 0 20.16 15.84 36 36 36s36-15.84 36-36c-0.48-138.24-81.6-252-213.6-300.48zM396.32 200c92.16 0 167.04 74.88 167.04 167.04S488 533.6 396.32 533.6s-167.04-74.88-167.04-167.04S304.16 200 396.32 200z" p-id="2439"></path></svg>