<?xml version="1.0" standalone="no"?><!DOCTYPE svg PUBLIC "-//W3C//DTD SVG 1.1//EN" "http://www.w3.org/Graphics/SVG/1.1/DTD/svg11.dtd"><svg t="1560176853527" class="icon" style="" viewBox="0 0 1024 1024" version="1.1" xmlns="http://www.w3.org/2000/svg" p-id="2319" xmlns:xlink="http://www.w3.org/1999/xlink" width="200" height="200"><defs><style type="text/css"></style></defs><path d="M868.37333375 739.41333312A456 456 0 0 0 488 32 456 456 0 0 0 32 488a456 456 0 0 0 707.41333313 380.37333375l75.62666718 75.62666625-0.69333375-128.32000031 129.65333344-0.63999938-75.62666625-75.62666718zM214.4 488a273.91999969 273.91999969 0 0 1 273.6-273.6 273.91999969 273.91999969 0 0 1 273.6 273.6c0 64.53333375-22.56 123.73333313-60.05333344 170.56000031l-43.36000031-43.36000031a211.41333375 211.41333375 0 0 0 42.61333406-127.2c0-117.33333375-95.46666656-212.80000031-212.80000031-212.80000031S275.19999969 370.66666625 275.19999969 488s95.46666656 212.80000031 212.80000031 212.80000031c47.73333375 0 91.68-16.00000031 127.2-42.61333406l43.36000031 43.36000031A272.10666656 272.10666656 0 0 1 488 761.6a273.91999969 273.91999969 0 0 1-273.6-273.6z m325.86666656 9.28000031a51.84 51.84 0 0 0 0.90666657-9.28000031 53.28 53.28 0 0 0-106.39999969 0c0 29.33333344 23.89333313 53.17333312 53.22666656 53.17333312 3.19999969 0 6.24-0.37333313 9.28000031-0.90666656l57.86666625 57.86666719a128.26666687 128.26666687 0 0 1-67.14666656 19.03999969A129.33333375 129.33333375 0 0 1 358.77333312 488 129.33333375 129.33333375 0 0 1 488 358.77333312a129.33333375 129.33333375 0 0 1 129.17333344 129.22666688c0 23.73333375-6.55999969 46.93333312-19.03999969 67.2L540.26666656 497.22666687z" p-id="2320"></path></svg>