<?xml version="1.0" standalone="no"?><!DOCTYPE svg PUBLIC "-//W3C//DTD SVG 1.1//EN" "http://www.w3.org/Graphics/SVG/1.1/DTD/svg11.dtd"><svg t="1560872588556" class="icon" style="" viewBox="0 0 1024 1024" version="1.1" xmlns="http://www.w3.org/2000/svg" p-id="1691" xmlns:xlink="http://www.w3.org/1999/xlink" width="200" height="200"><defs><style type="text/css"></style></defs><path d="M96.96289062 414.34472656a24.40722656 24.40722656 0 0 0 24.41601563-24.41601562V121.37890625h268.54980469a24.41601563 24.41601563 0 1 0 0-48.83203125H96.96289062A24.40722656 24.40722656 0 0 0 72.546875 96.96289062v292.96582032a24.40722656 24.40722656 0 0 0 24.41601563 24.41601562zM389.92871094 902.62109375H121.37890625V634.07128906a24.41601563 24.41601563 0 1 0-48.83203125 0v292.96582031A24.40722656 24.40722656 0 0 0 96.96289062 951.453125h292.96582032a24.41601563 24.41601563 0 0 0 0-48.83203125zM927.03710938 72.546875H634.07128906a24.41601563 24.41601563 0 1 0 0 48.83203125h268.54980469v268.54980469a24.41601563 24.41601563 0 1 0 48.83203125 0V96.96289062A24.3984375 24.3984375 0 0 0 927.03710938 72.546875zM927.03710938 609.65527344a24.3984375 24.3984375 0 0 0-24.41601563 24.41601562v268.54980469H634.07128906a24.41601563 24.41601563 0 1 0 0 48.83203125h292.96582031a24.3984375 24.3984375 0 0 0 24.41601563-24.41601563V634.07128906a24.3984375 24.3984375 0 0 0-24.41601563-24.41601562zM927.03710938 487.58398437H96.96289062a24.41601563 24.41601563 0 0 0 1e-8 48.83203126h830.07421875a24.41601563 24.41601563 0 0 0 0-48.83203125z" p-id="1692"></path></svg>