<?xml version="1.0" standalone="no"?><!DOCTYPE svg PUBLIC "-//W3C//DTD SVG 1.1//EN" "http://www.w3.org/Graphics/SVG/1.1/DTD/svg11.dtd"><svg t="1560872593193" class="icon" style="" viewBox="0 0 1024 1024" version="1.1" xmlns="http://www.w3.org/2000/svg" p-id="1813" xmlns:xlink="http://www.w3.org/1999/xlink" width="200" height="200"><defs><style type="text/css"></style></defs><path d="M427.594 792.745c-200.85 0-364.261-163.411-364.261-364.261S226.744 64.223 427.594 64.223s364.261 163.411 364.261 364.261-163.411 364.261-364.261 364.261z m0-663.395c-164.937 0-299.134 134.197-299.134 299.134s134.197 299.134 299.134 299.134 299.134-134.197 299.134-299.134S592.531 129.35 427.594 129.35z" p-id="1814"></path><path d="M925.331 958.763c-8.353 0-16.663-3.18-23.023-9.54L639.129 686.044c-12.72-12.72-12.72-33.327 0-46.047s33.327-12.72 46.047 0l263.179 263.179c12.72 12.72 12.72 33.327 0 46.047-6.361 6.36-14.671 9.54-23.024 9.54z" p-id="1815"></path></svg>