<?xml version="1.0" standalone="no"?><!DOCTYPE svg PUBLIC "-//W3C//DTD SVG 1.1//EN" "http://www.w3.org/Graphics/SVG/1.1/DTD/svg11.dtd"><svg t="1560176887188" class="icon" style="" viewBox="0 0 1024 1024" version="1.1" xmlns="http://www.w3.org/2000/svg" p-id="3153" xmlns:xlink="http://www.w3.org/1999/xlink" width="200" height="200"><defs><style type="text/css"></style></defs><path d="M846.612 85.51c-59.643-39.14-139.895-22.39-178.92 37.31l-326.64 499.774c-7.867 12.038-11.591 31.724-8.668 45.816l20.086 96.675-85.516 130.877c-12.364 18.891-7.082 44.255 11.8 56.646 18.885 12.39 44.193 7.113 56.56-11.778l84.472-129.27 99.121-20.746c14.05-2.96 30.578-14.245 38.445-26.282l326.637-499.774c39.025-59.7 22.258-140.106-37.377-179.247z m19.906 167.78L539.881 753.065c-4.829 7.4-16.637 15.47-25.26 17.268l-123.714 25.891c-2.734 0.57-5.5 0.047-7.84-1.474-2.32-1.542-3.92-3.88-4.489-6.604l-25.75-123.968c-1.804-8.654 0.869-22.719 5.69-30.117l326.644-499.775c32.712-50.059 100.024-64.095 150.015-31.282 50.008 32.81 64.07 100.241 31.341 150.288z m-91.824-59.004c-38.543-25.302-90.437-14.48-115.656 24.118l-14.264 21.825 37.602 24.664c7.604 4.998 9.744 15.26 4.781 22.892-5 7.61-15.249 9.748-22.858 4.767l-37.59-24.681-51.585 78.932 37.601 24.662c7.615 5.011 9.751 15.259 4.77 22.88-4.98 7.62-15.216 9.756-22.817 4.774l-37.616-24.692-51.577 78.93 37.589 24.68c3.704 2.426 6.23 6.135 7.123 10.453 0.903 4.33 0.07 8.74-2.352 12.427-4.981 7.621-15.233 9.759-22.838 4.761l-37.596-24.68-51.578 78.93 37.594 24.665c3.698 2.427 6.235 6.15 7.127 10.468 0.9 4.316 0.07 8.74-2.345 12.426-4.983 7.606-15.226 9.742-22.839 4.747l-37.601-24.666-10.57 16.173c-3.723 5.706-5.785 16.545-4.386 23.215l19.852 95.577a8.06 8.06 0 0 0 3.462 5.105 8.006 8.006 0 0 0 6.044 1.133l95.385-19.953c6.65-1.387 15.749-7.615 19.47-13.32l251.836-385.32c25.233-38.603 14.391-90.595-24.168-115.892zM176.233 179.806c18.1-1.804 28.053-11.756 29.877-29.877-1.824-17.189-11.777-26.695-29.877-28.52-17.21 1.825-26.716 11.331-28.52 28.52 1.804 18.121 11.31 28.073 28.52 29.877z m0-85.558c34.397 3.628 53.41 22.195 57.039 55.68-3.629 34.42-22.642 53.433-57.04 57.04-33.505-3.607-52.072-22.62-55.68-57.04 3.608-33.484 22.176-52.052 55.68-55.68z m169.758 16.297c47.978 2.716 72.869 15.406 74.694 38.026-0.913 14.493-8.148 22.195-21.729 23.087-3.628 0-9.06-1.358-16.297-4.075-12.689-4.52-24.912-6.79-36.668-6.79-41.655 1.824-63.384 28.072-65.187 78.767 2.716 48 24.445 73.335 65.187 76.052 11.756 0 24.446-3.162 38.026-9.506 7.236-3.607 13.114-5.433 17.655-5.433 12.669 0.913 20.371 9.061 23.087 24.445-0.913 24.445-27.162 37.113-78.768 38.026-74.248-4.52-114.077-46.175-119.51-124.943 5.433-79.657 45.262-122.225 119.51-127.656z" p-id="3154"></path></svg>