<?xml version="1.0" standalone="no"?><!DOCTYPE svg PUBLIC "-//W3C//DTD SVG 1.1//EN" "http://www.w3.org/Graphics/SVG/1.1/DTD/svg11.dtd"><svg t="1560176891369" class="icon" style="" viewBox="0 0 1024 1024" version="1.1" xmlns="http://www.w3.org/2000/svg" p-id="3271" xmlns:xlink="http://www.w3.org/1999/xlink" width="200" height="200"><defs><style type="text/css"></style></defs><path d="M503.466667 628.352l130.773333-130.773333a39.936 39.936 0 0 1 56.533333 56.490666l-157.994666 158.037334a39.978667 39.978667 0 0 1-49.322667 5.674666 39.893333 39.893333 0 0 1-11.52-8.021333l-102.357333-102.357333a39.936 39.936 0 0 1 56.490666-56.490667l77.44 77.44zM768 213.333333h85.76C900.608 213.333333 938.666667 251.306667 938.666667 298.666667v554.666666a85.333333 85.333333 0 0 1-84.906667 85.333334H170.24C123.392 938.666667 85.333333 900.693333 85.333333 853.333333V298.666667a85.333333 85.333333 0 0 1 84.906667-85.333334H256V170.24C256 146.986667 274.944 128 298.666667 128a42.666667 42.666667 0 0 1 42.666666 42.24V213.333333h341.333334V170.24c0-23.296 18.944-42.24 42.666666-42.24a42.666667 42.666667 0 0 1 42.666667 42.24V213.333333z m0 85.333334v43.093333c0 23.296-18.944 42.24-42.666667 42.24a42.666667 42.666667 0 0 1-42.666666-42.24V298.666667H341.333333v43.093333C341.333333 365.013333 322.389333 384 298.666667 384a42.666667 42.666667 0 0 1-42.666667-42.24V298.666667h-17.066667A68.266667 68.266667 0 0 0 170.666667 366.933333v418.133334A68.266667 68.266667 0 0 0 238.933333 853.333333h546.133334a68.266667 68.266667 0 0 0 68.266666-68.266666V366.933333A68.266667 68.266667 0 0 0 785.066667 298.666667H768z" p-id="3272"></path></svg>